HIERARCHY
ROOT root     
{
	OFFSET 0.0000 0.0000 0.0000
	CHANNELS 6 Xposition Yposition Zposition Zrotation Yrotation Xrotation
	JOINT pelvis   
	{
		OFFSET 0.0000 0.0000 0.0000
		CHANNELS 3 Zrotation Yrotation Xrotation
		JOINT thorax   
		{
			OFFSET 0.0000 23.0750 -5.0000
			CHANNELS 3 Zrotation Yrotation Xrotation
			JOINT rclavicle
			{
				OFFSET 0.0000 28.0009 0.0000
				CHANNELS 3 Zrotation Yrotation Xrotation
				JOINT rhumerus 
				{
					OFFSET -18.5725 5.5939 0.0000
					CHANNELS 3 Zrotation Yrotation Xrotation
					JOINT rradius  
					{
						OFFSET -24.8459 0.0000 0.0000
						CHANNELS 3 Zrotation Yrotation Xrotation
						JOINT rhand    
						{
							OFFSET -24.5477 0.0000 0.0000
							CHANNELS 3 Zrotation Yrotation Xrotation
							End Site
							{
								OFFSET -8.1826 0.0000 0.0000
							}
						}
					}
				}
			}
			JOINT lclavicle
			{
				OFFSET 0.0000 28.0009 0.0000
				CHANNELS 3 Zrotation Yrotation Xrotation
				JOINT lhumerus 
				{
					OFFSET 18.5725 5.5939 0.0000
					CHANNELS 3 Zrotation Yrotation Xrotation
					JOINT lradius  
					{
						OFFSET 24.8459 0.0000 0.0000
						CHANNELS 3 Zrotation Yrotation Xrotation
						JOINT lhand    
						{
							OFFSET 24.5477 0.0000 0.0000
							CHANNELS 3 Zrotation Yrotation Xrotation
							End Site
							{
								OFFSET 8.1826 0.0000 0.0000
							}
						}
					}
				}
			}
			JOINT head     
			{
				OFFSET 0.0000 35.2030 0.0000
				CHANNELS 3 Zrotation Yrotation Xrotation
				End Site
				{
					OFFSET 0.0000 11.7343 0.0000
				}
			}
		}
		JOINT rfemur   
		{
			OFFSET -8.2817 0.0000 0.0000
			CHANNELS 3 Zrotation Yrotation Xrotation
			JOINT rtibia   
			{
				OFFSET 0.0000 -43.3627 0.0000
				CHANNELS 3 Zrotation Yrotation Xrotation
				JOINT rfoot    
				{
					OFFSET 0.0000 -38.2947 0.0000
					CHANNELS 3 Zrotation Yrotation Xrotation
					JOINT rtoes    
					{
						OFFSET 0.0000 0.0000 16.6054
						CHANNELS 3 Zrotation Yrotation Xrotation
						End Site
						{
							OFFSET 0.0000 0.0000 5.5351
						}
					}
				}
			}
		}
		JOINT lfemur   
		{
			OFFSET 8.2817 0.0000 0.0000
			CHANNELS 3 Zrotation Yrotation Xrotation
			JOINT ltibia   
			{
				OFFSET 0.0000 -43.3627 0.0000
				CHANNELS 3 Zrotation Yrotation Xrotation
				JOINT lfoot    
				{
					OFFSET 0.0000 -38.2947 0.0000
					CHANNELS 3 Zrotation Yrotation Xrotation
					JOINT ltoes    
					{
						OFFSET 0.0000 0.0000 16.6054
						CHANNELS 3 Zrotation Yrotation Xrotation
						End Site
						{
							OFFSET 0.0000 0.0000 5.5351
						}
					}
				}
			}
		}
	}
}
MOTION
Frames: 19
Frame Time: .0333333
-42.613 88.26 6.4518 45.131 85.8392 66.5608 0 -0 0 -2.08796 -0.551205 -5.69705 24.0818 -5.47387 1.33242e-05 45.9815 16.4074 15.9114 -0 77.1303 -0 0.0106998 4.29924 0.000399912 -26.1363 14.6364 2.44849e-05 -35.2663 6.22822 6.10542 0 -69.7503 0 5.62256 2.54532 0.125002 -5.69977 4.88363 -9.10357 1.4387 -4.59614 -8.91781 -0 -0 15.4916 -4.11121e-06 1.17286 11.0987 0.225801 1.30898e-07 -51.7018 -9.98291 6.06248 -38.4966 -0 -0 33.4839 8.13744e-06 13.5075 2.23899 0.537702 -2.4408e-06 -35.0817 
-41.625 88.147 6.5194 42.4969 85.8767 63.9598 0 -0 0 -2.40681 -0.235402 -5.79572 24.0236 -5.54931 -3.84212e-05 45.3131 16.6501 16.2523 -2.84696e-06 78.5592 -3.004e-06 -0.0409997 4.42229 -0.00159998 -25.8884 14.8649 8.35133e-05 -35.4573 6.86535 5.08791 1.007e-06 -69.9115 -1.44053e-06 5.62371 2.4629 0.120997 -5.0577 4.72635 -9.0582 1.46158 -4.58054 -8.23919 -0 -0 15.3058 -5.24694e-06 1.58136 11.5059 0.31551 -3.27938e-06 -52.6827 -10.9083 6.42898 -39.0133 -0 -0 31.5979 2.74065e-06 13.3064 2.05687 0.486299 -4.57679e-07 -36.8563 
-40.608 88.005 6.5962 39.3635 85.9141 60.825 0 -0 0 -2.67812 0.0891977 -5.87639 23.9599 -5.6344 2.7405e-06 44.6701 16.8574 16.5323 -3.26071e-06 79.9853 -3.41755e-06 -0.129502 4.57202 -0.00520015 -25.6429 15.0922 5.78192e-05 -35.6832 7.50032 4.08121 -1.02638e-06 -70.0934 7.19916e-07 5.64251 2.37116 0.116901 -4.43966 4.58034 -9.01956 1.53496 -4.58699 -7.53654 -0 -0 15.191 -9.22394e-06 2.01746 11.8902 0.415794 4.02973e-06 -53.7452 -11.9434 7.01707 -39.4497 -0 -0 29.6738 8.5301e-06 12.938 1.88992 0.434096 8.60812e-07 -38.9192 
-39.558 87.83 6.6852 35.5275 85.9711 56.9394 0 -0 0 -2.88482 0.421194 -5.93338 23.8861 -5.73002 6.61107e-05 44.0528 17.0336 16.764 -3.80595e-06 81.3939 -3.96263e-06 -0.243998 4.73613 -0.0101001 -25.3942 15.316 -0.000134295 -35.9537 8.14627 3.09062 0 -70.298 0 5.693 2.2705 0.1129 -3.84949 4.45099 -8.98103 1.67081 -4.62275 -6.79142 -0 -0 15.1346 1.37499e-06 2.47288 12.2519 0.525092 7.25663e-06 -54.8916 -13.0736 7.82611 -39.8008 -0 -0 27.7402 -4.2024e-06 12.352 1.75571 0.384405 4.98886e-06 -41.0313 
-38.473 87.62 6.7884 30.8348 86.0715 52.1416 0 -0 0 -3.01805 0.756699 -5.97057 23.8041 -5.83807 4.16516e-05 43.4533 17.1841 16.959 -1.80216e-06 82.7823 -1.58829e-06 -0.373999 4.9029 -0.0159999 -25.1343 15.5344 -2.71599e-05 -36.2766 8.81703 2.12221 1.04625e-06 -70.5363 -1.47938e-06 5.78541 2.16315 0.109297 -3.28383 4.34343 -8.9341 1.87346 -4.69795 -5.99812 -0 -0 15.1346 -1.02046e-05 2.94161 12.5829 0.641405 4.28183e-06 -56.1058 -14.2726 8.83149 -40.0727 -0 -0 25.8374 1.20766e-06 11.5291 1.69521 0.345698 -2.36964e-06 -43.1196 
-37.353 87.371 6.9072 25.1444 86.1722 46.2976 0 -0 0 -3.07349 1.0881 -5.98956 23.7101 -5.95515 6.45515e-05 42.8704 17.3069 17.1212 -2.80643e-06 84.1489 -3.10868e-06 -0.502611 5.06297 -0.0222006 -24.8567 15.7463 0.000152542 -36.6578 9.52387 1.18113 -1.05871e-06 -70.8144 7.52575e-07 5.92399 2.05279 0.106202 -2.73383 4.26037 -8.87145 2.14213 -4.81837 -5.15002 -0 -0 15.1855 -1.05123e-05 3.41396 12.8796 0.7619 3.44027e-06 -57.3707 -15.4971 9.98568 -40.2802 -0 -0 24.0431 -1.77408e-06 10.4673 1.69622 0.313304 8.7548e-07 -44.6977 
-36.201 87.084 7.0407 18.4717 86.2491 39.4367 0 -0 0 -3.06269 1.4046 -6.00678 23.6193 -6.08295 -3.54601e-06 42.291 17.4076 17.2582 -1.84318e-06 85.4927 -1.99422e-06 -0.618609 5.21012 -0.0281007 -24.5526 15.9538 4.97702e-06 -37.0965 10.2741 0.273254 0 -71.1327 0 6.1061 1.9439 0.103698 -2.18268 4.20341 -8.78528 2.4631 -4.99502 -4.2661 -0 -0 15.3009 -1.68305e-05 3.89316 13.1284 0.885611 7.81973e-06 -58.6613 -16.6855 11.2 -40.4414 -0 -0 22.4205 -3.48396e-06 9.23725 1.79939 0.292599 1.18733e-06 -45.9249 
-35.024 86.759 7.1866 10.9035 86.3291 31.6485 0 -0 0 -3.00498 1.69343 -6.03945 23.5419 -6.2188 -5.85512e-05 41.7034 17.4852 17.3676 -3.72435e-06 86.8004 -3.9379e-06 -0.707095 5.34056 -0.0329998 -24.219 16.1543 -6.58843e-05 -37.5856 11.069 -0.597253 1.11098e-06 -71.4922 -1.54349e-06 6.32445 1.8414 0.101699 -1.61034 4.17127 -8.67106 2.81562 -5.2354 -3.37243 -0 -0 15.4986 -6.24485e-06 4.38881 13.3199 1.013 -3.86552e-06 -59.9566 -17.7616 12.3612 -40.5743 -0 -0 21.0461 2.37061e-06 7.94093 1.97663 0.275705 1.62664e-06 -46.5338 
-33.83 86.401 7.3411 2.81135 86.362 23.3355 0 -0 0 -2.93081 1.94083 -6.1089 23.498 -6.36154 -4.21452e-05 41.0982 17.5422 17.4483 -1.74214e-05 88.0728 -1.75778e-05 -0.756291 5.45377 -0.0359998 -23.8544 16.3516 -6.40689e-05 -38.11 11.9005 -1.42682 0 -71.8865 0 6.56688 1.74975 0.100405 -0.994497 4.1615 -8.52834 3.17034 -5.54763 -2.5092 -0 -0 15.8098 1.89272e-05 4.92501 13.4457 1.1478 -7.52408e-06 -61.2447 -18.638 13.3323 -40.6866 -0 -0 19.9782 2.5234e-06 6.72876 2.20353 0.259906 4.05173e-07 -46.4989 
-32.631 86.016 7.4992 -5.31453 86.3506 15.01 0 -0 0 -2.87515 2.13707 -6.23962 23.5034 -6.49967 -2.71269e-06 40.4715 17.5668 17.4866 -0.000104313 89.3399 -0.000104446 -0.746392 5.5514 -0.0361994 -23.4638 16.5421 3.99767e-05 -38.648 12.764 -2.21458 0 -72.3125 0 6.81944 1.67104 0.0996053 -0.314806 4.16937 -8.35772 3.49457 -5.93339 -1.72603 -0 -0 16.2703 -1.37822e-05 5.53769 13.4977 1.29641 1.65126e-06 -62.5124 -19.2375 13.9879 -40.7867 -0 -0 19.2722 -2.73921e-06 5.75289 2.42063 0.243805 2.00736e-06 -45.6619 
-31.433 85.612 7.655 -12.971 86.2923 7.18646 0 -0 0 -2.86716 2.26843 -6.42561 23.5835 -6.6431 -2.25162e-05 39.8079 17.584 17.4869 -180 89.4747 -180 -0.684108 5.63651 -0.0337006 -23.0664 16.7382 -8.68842e-05 -39.1727 13.6179 -2.96059 0 -72.7485 0 7.06454 1.61009 0.0994003 0.439501 4.19078 -8.17341 3.75534 -6.39811 -1.0481 -0 -0 16.9017 -1.33774e-05 6.26878 13.4973 1.4687 -1.16477e-05 -63.8109 -19.4904 14.2165 -40.8524 -0 -0 18.9491 3.60112e-06 5.15704 2.57136 0.231996 -7.536e-07 -43.9882 
-30.245 85.196 7.8013 -19.7124 86.2009 0.322703 0 -0 0 -2.93613 2.33216 -6.67252 23.7457 -6.78913 -3.1172e-05 39.1145 17.5988 17.4451 -180 88.2772 -180 -0.564689 5.71207 -0.0281996 -22.6794 16.9428 -5.23729e-06 -39.6612 14.4354 -3.66456 -1.18406e-06 -73.1749 8.78934e-07 7.28913 1.56895 0.0998993 1.2711 4.22086 -7.98562 3.91644 -6.95603 -0.521709 -0 -0 17.7548 3.34361e-05 7.18697 13.4647 1.68169 1.0982e-05 -65.173 -19.3878 13.9766 -40.9045 -0 -0 19.0595 2.0802e-06 5.00705 2.54931 0.223297 -1.1126e-06 -41.0191 
-29.076 84.778 7.932 -25.2938 86.1097 -5.32822 0 -0 0 -3.10106 2.33563 -6.98684 23.9818 -6.92134 8.41724e-06 38.4193 17.5844 17.3448 -180 87.1953 -180 -0.371704 5.77919 -0.0188003 -22.3162 17.154 0.000152482 -40.0941 15.1963 -4.32645 0 -73.5683 0 7.4827 1.54408 0.100998 2.17161 4.2543 -7.80318 3.95287 -7.59715 -0.184196 -0 -0 18.8595 -7.62835e-06 8.34255 13.408 1.94751 -2.48377e-06 -66.5865 -18.9667 13.2911 -40.99 -0 -0 19.6385 -1.91491e-06 5.3017 2.30876 0.214199 6.53172e-08 -37.008 
-27.928 84.365 8.0418 -29.6362 86.0156 -9.69406 0 -0 0 -3.36239 2.28773 -7.34042 24.2817 -7.04368 -5.94154e-05 37.746 17.5553 17.1934 -180 86.1589 -180 -0.115203 5.83809 -0.00590015 -22.0028 17.3797 -8.06908e-06 -40.4597 15.8617 -4.94817 0 -73.9064 0 7.63848 1.53548 0.102498 3.11675 4.28916 -7.64298 3.84628 -8.32227 -0.0411067 -0 -0 20.2342 -3.25262e-05 9.7829 13.375 2.28407 -2.6866e-05 -68.0867 -18.309 12.2601 -41.147 -0 -0 20.7164 -9.17665e-07 5.9494 1.77039 0.184496 -1.2165e-07 -31.7593 
-26.8 83.962 8.1264 -32.7564 85.9232 -12.8091 0 -0 0 -3.71022 2.20807 -7.70201 24.617 -7.15438 3.4794e-05 37.1301 17.5132 16.9955 -180 85.1943 -180 0.198697 5.88606 0.0101999 -21.7572 17.6192 0.00011641 -40.7521 16.3995 -5.53047 9.43012e-07 -74.159 -1.24778e-06 7.75524 1.54075 0.104397 4.0719 4.32473 -7.5182 3.58611 -9.12127 -0.084806 -0 -0 21.8883 -5.33482e-05 11.533 13.4139 2.71024 1.08553e-05 -69.6721 -17.5235 11.0359 -41.4066 -0 -0 22.2888 6.55744e-08 6.81025 0.908304 0.108498 4.04989e-07 -25.4612 
-25.688 83.576 8.1829 -34.6433 85.822 -14.6882 0 -0 0 -4.12912 2.12287 -8.03333 24.9581 -7.25208 4.18398e-06 36.6094 17.4589 16.7591 -180 84.313 -180 0.560304 5.91775 0.0290002 -21.5957 17.873 -0.000131712 -40.9788 16.7835 -6.07641 9.532e-07 -74.3095 -1.2579e-06 7.83696 1.55702 0.106702 4.99607 4.36228 -7.43894 3.16728 -9.97529 -0.291198 -0 -0 23.8081 0.000108725 13.5879 13.5764 3.24714 -7.18466e-05 -71.2995 -16.7179 9.78071 -41.7612 -0 -0 24.2892 -2.41023e-07 7.74597 -0.239198 -0.0325 1.40155e-07 -18.6171 
-24.586 83.21 8.2071 -35.1829 85.7184 -15.2501 0 -0 0 -4.60966 2.06044 -8.29695 25.276 -7.33561 -3.86547e-05 36.2195 17.3938 16.496 -180 83.5311 -180 0.957297 5.92695 0.0496 -21.5258 18.1343 -4.82848e-05 -41.1491 16.9964 -6.58978 9.54402e-07 -74.327 -1.25909e-06 7.89307 1.58097 0.1091 5.84836 4.40504 -7.41062 2.57886 -10.8679 -0.629896 -0 -0 25.9778 2.91576e-05 15.9139 13.9082 3.9204 -1.39389e-05 -72.9012 -15.9836 8.62191 -42.1575 -0 -0 26.5857 -8.62633e-06 8.66486 -1.56985 -0.239206 9.03784e-08 -12.0095 
-23.494 82.873 8.1998 -34.5587 85.5884 -14.6922 0 -0 0 -5.12279 2.04458 -8.47102 25.5489 -7.40446 5.77702e-05 35.9837 17.3181 16.2204 -180 82.8483 -180 1.37511 5.90572 0.0709009 -21.5615 18.3907 -1.90277e-05 -41.273 17.0354 -7.07732 -1.25052e-06 -74.1997 9.45772e-07 7.93772 1.61192 0.111804 6.58566 4.4586 -7.43048 1.84456 -11.7443 -1.0689 -0 -0 28.3413 7.90812e-05 18.4032 14.4504 4.74612 -4.61919e-06 -74.3707 -15.3678 7.64938 -42.5309 -0 -0 29.0157 2.69875e-06 9.51386 -2.96829 -0.497204 6.48932e-08 -6.39366 
-22.407 82.568 8.153 -32.5751 85.4117 -12.8278 0 -0 0 -5.68669 2.09027 -8.54275 25.7664 -7.45784 4.03631e-05 35.9145 17.2299 15.9456 -180 82.2736 -180 1.80027 5.84871 0.0920045 -21.69 18.6358 9.98056e-05 -41.3748 16.8936 -7.54031 0 -73.9179 0 7.986 1.64708 0.114999 7.18173 4.52874 -7.48966 0.937896 -12.6066 -1.59563 -0 -0 30.8828 -2.17822e-06 20.9694 15.2176 5.74458 3.47384e-05 -75.6022 -14.9256 6.88485 -42.7907 -0 -0 31.388 2.90597e-06 10.2957 -4.34463 -0.788394 -4.73034e-07 -2.16709 
